<?xml version="1.0" encoding="utf-8"?>
<!-- Generator: Adobe Illustrator 23.0.0, SVG Export Plug-In . SVG Version: 6.00 Build 0)  -->
<svg version="1.1" id="Capa_1" xmlns="http://www.w3.org/2000/svg" xmlns:xlink="http://www.w3.org/1999/xlink" x="0px" y="0px"
	 viewBox="0 0 512 512" style="enable-background:new 0 0 512 512;" xml:space="preserve">
<style type="text/css">
	.st0{fill:#FFFFFF;}
</style>
<g>
	<path class="st0" d="M418.7,157.6c4.1,0,7.5-3.4,7.5-7.5V138c0-4.1-3.4-7.5-7.5-7.5s-7.5,3.4-7.5,7.5v12.1
		C411.2,154.2,414.5,157.6,418.7,157.6z"/>
	<path class="st0" d="M352.5,157.6c4.1,0,7.5-3.4,7.5-7.5V138c0-4.1-3.4-7.5-7.5-7.5s-7.5,3.4-7.5,7.5v12.1
		C345,154.2,348.4,157.6,352.5,157.6z"/>
	<path class="st0" d="M349.3,216.7c1,0.2,22,4.1,36.3-9.8c9,8.8,20.7,10.4,28.4,10.4c4.5,0,7.6-0.6,7.9-0.6c3-0.6,5.4-3,6-6.1
		c2.8-15.7,0.3-28.4-7.5-37.6c-10.8-12.9-27.9-14.3-34.8-14.3c-6.9,0-24,1.4-34.8,14.3c-7.8,9.3-10.3,21.9-7.5,37.6
		C343.9,213.7,346.3,216.1,349.3,216.7L349.3,216.7z M362.3,182.7c6.7-8,18.5-8.9,23.3-8.9c4.8,0,16.5,0.9,23.3,8.9
		c3.9,4.7,5.6,11.3,4.9,19.7c-6.2,0-16.3-1.7-21.6-11.4c-1.3-2.4-3.8-3.9-6.6-3.9s-5.3,1.5-6.6,3.9c-5.3,9.7-15.4,11.4-21.6,11.4
		C356.8,194,358.4,187.4,362.3,182.7L362.3,182.7z"/>
	<path class="st0" d="M375.3,111c-4.1,0-7.5,3.4-7.5,7.5s3.4,7.5,7.5,7.5h20.6c4.1,0,7.5-3.4,7.5-7.5s-3.4-7.5-7.5-7.5H375.3z"/>
	<path class="st0" d="M370.6,100.9h30.1c4.1,0,7.5-3.4,7.5-7.5s-3.4-7.5-7.5-7.5h-30.1c-4.1,0-7.5,3.4-7.5,7.5
		S366.4,100.9,370.6,100.9z"/>
	<path class="st0" d="M511.7,341.7c-3.9-12.9-8.9-25.1-15.1-36.2c-2-3.6-6.6-5-10.2-3c-3.6,2-5,6.6-3,10.2
		c4.1,7.4,7.6,15.3,10.6,23.6h-217c9.2-25.5,23.3-46.6,41.9-62.9l31.3,50.2c1.1,1.7,2.7,2.9,4.7,3.4c0.6,0.1,1.1,0.2,1.7,0.2
		c1.4,0,2.8-0.4,4-1.2l25-15.7l25,15.7c1.2,0.8,2.6,1.2,4,1.2c0.6,0,1.1-0.1,1.7-0.2c1.9-0.4,3.6-1.7,4.7-3.4l31.2-50.2
		c5,4.4,10.2,9.6,15.2,15.7c1.5,1.8,3.6,2.7,5.8,2.7c1.7,0,3.4-0.6,4.8-1.7c3.2-2.7,3.6-7.4,1-10.6c-8-9.7-16.3-17.3-24-23.2
		c0,0-0.1,0-0.1-0.1c-7.5-5.8-14.5-10.1-20.2-13c17.6-13.2,29.7-33.2,32.5-56.1c1.3,0.2,2.7,0.3,4.1,0.3c17.9,0,32.5-14.6,32.5-32.5
		c0-8.8-3.6-16.9-9.3-22.7c2.2-41.8-14.5-69.3-29.1-85c-20.4-22-50.2-35.2-79.8-35.2c-29.5,0-59.4,13.1-79.8,35.2
		c-14.6,15.8-31.3,43.2-29.1,85c-5.8,5.9-9.3,13.9-9.3,22.7c0,17.9,14.6,32.5,32.5,32.5c1.4,0,2.7-0.1,4.1-0.3
		c2.7,22.9,14.9,42.9,32.5,56.1c-5.6,3-12.6,7.2-20.1,13c-0.1,0.1-0.2,0.1-0.2,0.2c-0.7,0.5-1.4,1.1-2.1,1.7
		c-17.6,14.2-41.4,40.2-54.5,83.7c-0.7,2.3-0.3,4.7,1.2,6.6c1.4,1.9,3.7,3,6,3h237.8c2.4,0,4.6-1.1,6-3
		C511.9,346.4,512.4,344,511.7,341.7L511.7,341.7z M359,309.3l-28.1-45.2c7.5-5.2,14-8.5,18.4-10.5l26.2,45.3L359,309.3z
		 M385.6,286.4L369,257.8c5.4,1.1,10.9,1.7,16.6,1.7s11.2-0.6,16.6-1.7L385.6,286.4z M412.2,309.3l-16.5-10.3l26.2-45.3
		c4.3,1.9,10.8,5.3,18.4,10.5L412.2,309.3z M471.3,172.3c-1.2,0-2.4-0.1-3.5-0.4v-34.2c1.1-0.2,2.3-0.4,3.5-0.4
		c9.6,0,17.5,7.8,17.5,17.5C488.8,164.4,480.9,172.3,471.3,172.3z M316.9,57.2c17.6-19,43.3-30.4,68.7-30.4s51.1,11.3,68.7,30.4
		c11.7,12.6,24.9,34,25.3,66.1c-2.7-0.7-5.5-1.1-8.3-1.1c-1.5,0-3,0.1-4.5,0.3c-6.3-39.1-40.3-69.1-81.1-69.1s-74.9,30-81.1,69.1
		c-1.5-0.2-3-0.3-4.5-0.3c-2.9,0-5.7,0.4-8.3,1.1C292,91.2,305.2,69.8,316.9,57.2L316.9,57.2z M282.4,154.8
		c0-9.6,7.8-17.5,17.5-17.5c1.2,0,2.4,0.1,3.5,0.4v34.2c-1.1,0.2-2.3,0.4-3.5,0.4C290.3,172.2,282.4,164.4,282.4,154.8L282.4,154.8z
		 M318.4,177.3v-41.6c0-37,30.1-67.2,67.2-67.2s67.2,30.1,67.2,67.2v41.6c0,37-30.1,67.2-67.2,67.2S318.4,214.3,318.4,177.3z"/>
	<path class="st0" d="M142.8,189.9c4.1,0,7.5-3.4,7.5-7.5v-10.8c0-4.1-3.4-7.5-7.5-7.5s-7.5,3.4-7.5,7.5v10.8
		C135.2,186.5,138.6,189.9,142.8,189.9z"/>
	<path class="st0" d="M83.9,189.9c4.2,0,7.5-3.4,7.5-7.5v-10.8c0-4.1-3.4-7.5-7.5-7.5s-7.5,3.4-7.5,7.5v10.8
		C76.4,186.5,79.7,189.9,83.9,189.9z"/>
	<path class="st0" d="M89.2,217.7c2.1,5.1,9.6,13.8,24.1,13.8s22-8.7,24.1-13.8c1.6-3.8-0.3-8.2-4.1-9.8c-3.8-1.6-8.2,0.2-9.8,4.1
		c0,0-2.2,4.5-10.2,4.5s-10.2-4.4-10.2-4.5c-1.6-3.8-6-5.7-9.8-4.1C89.4,209.5,87.6,213.9,89.2,217.7z"/>
	<path class="st0" d="M225.2,348.5c1.4-1.9,1.9-4.4,1.2-6.6c-15.9-53.1-49-77.7-67.8-87.8c15-11.7,25.5-29,28.1-48.8
		c1,0.1,1.9,0.1,2.9,0.1c16.4,0,29.7-13.3,29.7-29.7c0-13.4-8.8-24.7-21-28.4c0.4-1,0.6-2.1,0.5-3.2c-1.7-33.9-10.8-59.2-27.2-75.3
		c-14.2-14-33.9-21.1-58.3-21.1c-19.6,0-36.2,4.6-49.3,13.7c-3.4,2.4-4.3,7-1.9,10.5c2.4,3.4,7,4.3,10.5,1.9
		c10.5-7.3,24.3-11,40.8-11c42.5,0,65.5,24.3,70,74.3h-3.5h-32.2v-25.4c0-18.9-15.4-34.3-34.3-34.3c-18.9,0-34.3,15.4-34.3,34.3
		v25.4H46.9h-3.5c1.6-17.5,5.5-32.1,11.7-43.3c2-3.6,0.7-8.2-3-10.2s-8.2-0.7-10.2,3c-8.2,14.9-12.9,34.3-14,57.7
		c-0.1,1.1,0.1,2.2,0.5,3.2c-12.1,3.7-21,15.1-21,28.4c0,16.4,13.3,29.7,29.7,29.7c1,0,2-0.1,2.9-0.1c2.6,19.8,13,37.1,28.1,48.8
		c-18.7,10.1-51.8,34.7-67.8,87.8c-0.7,2.3-0.2,4.7,1.2,6.6s3.7,3,6,3h211.6C221.5,351.5,223.8,350.4,225.2,348.5z M204.3,175.6
		c0,8.1-6.6,14.7-14.7,14.7c-0.8,0-1.5-0.1-2.3-0.2v-29c0.7-0.1,1.5-0.2,2.3-0.2C197.7,160.9,204.3,167.5,204.3,175.6L204.3,175.6z
		 M113.3,92.2c9.1,0,16.8,6.4,18.7,15H94.6C96.5,98.6,104.2,92.2,113.3,92.2z M94.1,122.2h38.5v14.6H94.1L94.1,122.2z M39.4,190.1
		c-0.7,0.1-1.5,0.2-2.3,0.2c-8.1,0-14.7-6.6-14.7-14.7s6.6-14.7,14.7-14.7c0.8,0,1.5,0.1,2.3,0.2V190.1z M54.4,195.6v-43.7h32.2
		h53.5h32.2v43.7c0,32.5-26.4,58.9-58.9,58.9S54.4,228.1,54.4,195.6z M133.4,266.8c-0.5,2-1.1,4.1-1.9,6.2c-5.8,15-15.1,15-18.1,15
		s-12.3,0-18.1-15c-0.8-2.1-1.4-4.2-1.9-6.2c6.4,1.8,13.1,2.8,20.1,2.8C120.3,269.6,127,268.6,133.4,266.8z M17.9,336.5
		c8.7-23.6,22.1-42.9,40-57.5c7.6-6.2,14.5-10.3,19.7-12.9c3.2,16.5,13,37,35.7,37c22.7,0,32.5-20.5,35.7-37
		c14.4,7.3,43.5,26.8,59.7,70.4L17.9,336.5z"/>
	<path class="st0" d="M481.4,396.2l-100.9-24.7c-2.7-0.7-5.5,0.2-7.4,2.3s-2.4,5-1.4,7.6l6.5,17.4c-18.9,8-82.7,30.2-186.9,19.8
		c-4.1-0.4-7.8,2.6-8.2,6.7s2.6,7.8,6.7,8.2c19.8,2,38.3,2.8,55.2,2.8c94,0,143.7-25.7,146.1-27c3.3-1.8,4.8-5.7,3.5-9.2l-4-10.7
		l76.8,18.8l-44.7,67.9l-5.5-14.9c-1.4-3.8-5.6-5.8-9.5-4.5c-68.1,23.4-139.5,27.4-212.3,12c-65.4-13.9-120-41.2-154.2-61.7
		c-0.5-0.3-2-1.2-1-3.3c0.6-1.4,1.7-1.9,3.2-1.4c39.6,12.7,78.7,21.9,116.2,27.5c4.1,0.6,7.9-2.2,8.5-6.3c0.6-4.1-2.2-7.9-6.3-8.5
		c-36.7-5.5-75-14.5-113.8-26.9c-8.8-2.8-17.6,1.1-21.4,9.5c-3.8,8.4-0.9,17.6,7,22.4c51.3,30.7,104.7,52.1,158.8,63.5
		c73,15.5,144.8,12.1,213.4-10.2l8.2,22c1,2.7,3.4,4.5,6.2,4.9c0.3,0,0.6,0,0.9,0c2.5,0,4.9-1.3,6.3-3.4l58.7-89.2
		c1.3-2,1.6-4.6,0.7-6.9C485.7,398.4,483.8,396.7,481.4,396.2L481.4,396.2z"/>
</g>
</svg>
