<?xml version="1.0" encoding="utf-8"?>
<!-- Generator: Adobe Illustrator 23.0.0, SVG Export Plug-In . SVG Version: 6.00 Build 0)  -->
<svg version="1.1" id="Layer_1" xmlns="http://www.w3.org/2000/svg" xmlns:xlink="http://www.w3.org/1999/xlink" x="0px" y="0px"
	 viewBox="0 0 512 512" style="enable-background:new 0 0 512 512;" xml:space="preserve">
<style type="text/css">
	.st0{fill:#FFFFFF;}
</style>
<path class="st0" d="M429.6,292.5l73.8-82.8c6.2-7,9.3-16.3,8.5-25.6c-0.8-9.3-5.4-17.9-12.7-23.8c-14.7-11.3-35.7-9.1-47.8,5.1
	L395.6,228l-82.8-73.8c-7-6.3-17.8-5.6-24.1,1.4L23,454c-12.6,13.6-12.4,34.7,0.5,48c6.4,6.4,15,9.9,24,9.9h1.1
	c9.4-0.3,18.2-4.4,24.4-11.4l232.7-261.3l63.7,56.7C387,311.7,413.9,310.1,429.6,292.5z M380.7,283.3L317,226.5
	c-3.4-3-7.8-4.5-12.3-4.3c-4.5,0.2-8.8,2.3-11.7,5.7L60.2,489.2c-3.1,3.5-7.5,5.6-12.2,5.7c-4.7,0.1-9.2-1.7-12.6-4.9
	c-6.3-7-6.2-17.7,0.2-24.5L301.5,167l82.8,73.8c7,6.3,17.8,5.6,24.1-1.4l55.8-62.6c6.1-7.2,16.7-8.6,24.3-3.1
	c3.7,2.9,6,7.2,6.4,11.9c0.4,4.7-1.1,9.3-4.3,12.8l-73.8,82.8C407.4,291.7,391.3,292.7,380.7,283.3z"/>
<path class="st0" d="M171.8,120.1l57.3,51.1c7,6.3,17.8,5.6,24.1-1.4l22.7-25.5c6.3-7,5.6-17.8-1.4-24.1l-76.5-68.1
	c-17.6-15.7-44.6-14.1-60.2,3.5l-73.8,82.8c-6.2,7-9.3,16.3-8.5,25.6c0.8,9.3,5.4,17.9,12.7,23.8c5.9,4.7,13.2,7.3,20.8,7.2
	c10.3-0.1,20.1-4.5,27-12.3L171.8,120.1z M79,174.5c-3.7-2.9-6-7.2-6.4-11.9s1.1-9.3,4.3-12.8l73.8-82.8c4.5-5.1,10.9-8.2,17.6-8.5
	c0.5,0,1-0.1,1.5-0.1c6.3,0,12.3,2.3,17,6.5l76.5,68.1l-22.7,25.5l-57.3-51.1c-7-6.3-17.8-5.6-24.1,1.4l-55.8,62.7
	C97.2,178.6,86.6,179.9,79,174.5z"/>
<path class="st0" d="M263.9,502.1c6.4,6.4,15,9.9,24,9.9h1.1c9.4-0.3,18.2-4.4,24.4-11.4l73.8-82.8c15.7-17.6,14.1-44.6-3.5-60.2
	l-76.5-68.1c-3.4-3-7.8-4.5-12.3-4.3c-4.5,0.2-8.8,2.3-11.8,5.7l-22.7,25.5c-6.3,7-5.6,17.8,1.4,24.1l57.3,51l-55.8,62.6
	C250.8,467.7,251,488.8,263.9,502.1z M276.2,465.4l55.8-62.6c6.3-7,5.6-17.8-1.4-24.1l-57.4-51.1l22.7-25.5l76.5,68.1
	c10.6,9.4,11.5,25.6,2.1,36.1l-73.8,82.8c-3.1,3.5-7.5,5.6-12.2,5.7c-4.7,0.2-9.3-1.6-12.6-4.9C269.6,483,269.7,472.3,276.2,465.4
	L276.2,465.4z"/>
<path class="st0" d="M324.4,134.2c14,12.5,32.2,19.5,51,19.4c1.5,0,3-0.1,4.5-0.1c36.6-2.1,66.6-29.8,71.6-66.1
	s-16.2-71.1-50.8-83.1c-34.6-12-72.9,2-91.4,33.6C290.7,69.5,297,109.8,324.4,134.2L324.4,134.2z M330.9,37.1
	c21.9-24.6,59.7-26.8,84.3-4.9s26.8,59.7,4.9,84.3c-21.9,24.6-59.7,26.8-84.3,4.9c-11.9-10.5-19-25.3-19.9-41.1
	C314.9,64.4,320.3,48.9,330.9,37.1z"/>
<path class="st0" d="M0.1,230.4c0,4.7,3.8,8.5,8.5,8.5h68.3c4.7,0,8.5-3.8,8.5-8.5c0-4.7-3.8-8.5-8.5-8.5H8.6
	C3.9,221.8,0.1,225.7,0.1,230.4z"/>
<path class="st0" d="M34.2,264.5c0,4.7,3.8,8.5,8.5,8.5H111c4.7,0,8.5-3.8,8.5-8.5c0-4.7-3.8-8.5-8.5-8.5H42.7
	C38,256,34.2,259.8,34.2,264.5z"/>
</svg>
