<?xml version="1.0" encoding="utf-8"?>
<!-- Generator: Adobe Illustrator 23.0.0, SVG Export Plug-In . SVG Version: 6.00 Build 0)  -->
<svg version="1.1" id="Capa_1" xmlns="http://www.w3.org/2000/svg" xmlns:xlink="http://www.w3.org/1999/xlink" x="0px" y="0px"
	 viewBox="0 0 512 512" style="enable-background:new 0 0 512 512;" xml:space="preserve">
<style type="text/css">
	.st0{fill:#FFFFFF;}
</style>
<g>
	<path class="st0" d="M445.7,371.1c8.1-9.3,12.6-21.3,12.6-33.7c0-28.4-23.1-51.5-51.5-51.5c-14.9,0-29.1,6.5-38.9,17.8
		c-8.1,9.3-12.6,21.3-12.6,33.7c0,28.4,23.1,51.5,51.5,51.5C421.8,388.9,436,382.4,445.7,371.1z M370.4,337.4
		c0-8.8,3.2-17.2,8.9-23.8c0,0,0,0,0,0c6.9-8,17-12.6,27.6-12.6c20.1,0,36.4,16.4,36.4,36.4c0,8.8-3.2,17.2-8.9,23.8
		c-6.9,8-17,12.6-27.6,12.6C386.7,373.8,370.4,357.5,370.4,337.4L370.4,337.4z"/>
	<path class="st0" d="M476.2,268.6c-17.9-18.1-41.7-28.4-67-29c-26.6-0.6-51.7,9.2-70.7,27.8c-19,18.6-29.5,43.4-29.5,70
		c0,12.7,2.4,25.1,7.2,36.8c1.6,3.8,5.9,5.7,9.8,4.1c3.8-1.6,5.7-5.9,4.1-9.8c-4-9.9-6.1-20.4-6.1-31.2c0-22.5,8.9-43.5,24.9-59.2
		c16.1-15.7,37.3-24.1,59.8-23.5c21.3,0.5,41.5,9.2,56.7,24.5c15.2,15.3,23.8,35.5,24.1,56.9c0.3,18.4-5.3,35.9-16.3,50.7
		l-40.8,56.3c-7.4,10.1-12.4,21.5-15.1,33.7l-3.1,14.1c-0.8,3.5-3.9,6-7.5,6s-6.7-2.5-7.5-6l-3.1-14.1c-2.6-12.2-7.7-23.6-15.1-33.7
		L346,394.5c-2.4-3.4-7.1-4.1-10.5-1.7c-3.4,2.4-4.1,7.1-1.7,10.5l35.3,48.6c6.1,8.4,10.3,17.9,12.6,28.1l3.1,14.1
		c2.2,10.4,11.6,17.9,22.2,17.9s19.9-7.5,22.2-17.9L432,480c2.2-10.2,6.4-19.6,12.5-28.1l40.8-56.2c12.9-17.4,19.6-38.1,19.3-59.9
		C504.2,310.6,494.1,286.7,476.2,268.6L476.2,268.6z"/>
	<path class="st0" d="M87.2,122.9c12.4,0,24.2-5.4,32.3-14.8c6.7-7.7,10.4-17.7,10.4-27.9c0-6.2-1.3-12.3-3.9-17.9
		c-1.7-3.8-6.2-5.4-10-3.7c-3.8,1.7-5.4,6.2-3.7,10c1.7,3.7,2.5,7.6,2.5,11.6c0,6.7-2.4,13.1-6.8,18.1c-5.3,6.1-12.9,9.6-20.9,9.6
		c-15.3,0-27.7-12.4-27.7-27.7c0-6.7,2.4-13.1,6.8-18.1c5.3-6.1,12.9-9.6,20.9-9.6c1.4,0,2.8,0.1,4.2,0.3c4.1,0.6,7.9-2.2,8.6-6.3
		c0.6-4.1-2.2-7.9-6.3-8.6c-2.1-0.3-4.3-0.5-6.5-0.5c-12.4,0-24.2,5.4-32.3,14.8C48.2,60.1,44.5,70,44.5,80.2
		C44.5,103.8,63.6,122.9,87.2,122.9z"/>
	<path class="st0" d="M55.7,172.8c4.8,6.6,8.1,14,9.8,21.9L68,206c1.9,9,10,15.5,19.2,15.5s17.3-6.5,19.2-15.5l2.4-11.3
		c1.7-8,5-15.3,9.8-21.9l32.6-45c10.6-14.2,16-31.1,15.7-48.8c-0.3-20.6-8.6-40.1-23.2-54.8C129.1,9.4,109.7,1,89.1,0.5
		C67.4,0,46.9,8,31.4,23.2c-15.5,15.1-24,35.4-24,57.1c0,17.3,5.4,33.7,15.7,47.5L55.7,172.8z M41.9,33.9
		C54.1,22,70.1,15.5,87.2,15.5c0.5,0,1.1,0,1.6,0c16.7,0.4,32.5,7.2,44.4,19.2s18.6,27.8,18.9,44.5c0.2,14.4-4.2,28.1-12.8,39.7
		L106.5,164c-6,8.3-10.2,17.6-12.3,27.6l-2.4,11.3c-0.5,2.1-2.4,3.7-4.5,3.7s-4.1-1.5-4.5-3.7l-2.4-11.3c-2.2-10-6.3-19.3-12.3-27.6
		l-32.7-45.1c-8.3-11.2-12.8-24.6-12.8-38.6C22.4,62.6,29.3,46.2,41.9,33.9L41.9,33.9z"/>
	<path class="st0" d="M431.4,86c-2.8,3.1-2.6,7.8,0.5,10.6c1.4,1.3,3.3,2,5.1,2c2,0,4.1-0.8,5.5-2.4l0.1-0.1
		c0.2-0.2,0.4-0.4,0.5-0.6c5.7-6.6,8.8-15,8.8-23.7c0-19.9-16.2-36.2-36.2-36.2c-10.4,0-20.3,4.5-27.2,12.3
		c-2.7,3.1-2.4,7.9,0.7,10.6c3.1,2.7,7.9,2.4,10.6-0.7c4-4.6,9.8-7.2,15.9-7.2c11.7,0,21.1,9.5,21.1,21.1c0,5.1-1.8,10-5.2,13.8
		L431.4,86z"/>
	<path class="st0" d="M359.2,40.4c3.4,2.4,8.1,1.6,10.5-1.7c11-15.3,28.7-24.1,47.4-23.7c14.6,0.3,28.4,6.3,38.8,16.8
		c10.4,10.5,16.3,24.3,16.5,38.9c0.2,12.6-3.7,24.6-11.2,34.8l-7.8,10.7c-2.4,3.4-1.7,8,1.7,10.5c1.3,1,2.9,1.4,4.4,1.4
		c2.3,0,4.6-1.1,6.1-3.1l7.7-10.6c9.5-12.8,14.4-27.9,14.1-43.9c-0.3-18.5-7.7-36-20.9-49.3C453.5,8,436,0.5,417.5,0
		c-23.7-0.6-46.1,10.6-60,29.9c-0.7,0.9-2.6,5.6,0.5,9.4C358.4,39.7,358.8,40.1,359.2,40.4L359.2,40.4z"/>
	<path class="st0" d="M347,449.5c0-2.1-0.8-4.2-2.5-5.6c-3.1-2.8-7.8-2.5-10.6,0.6c-4.8,5.3-9.7,10.2-14.8,14.6
		c-10.6,3.7-21.4,6.5-32.5,8.4c8.4-18,15.5-42.8,21-72.8c0.7-4.1-2-8-6-8.7c-4.1-0.7-8,2-8.7,6c-6.2,33.8-14.8,61.2-24.4,77.8
		c-6.3,0.5-12.6,0.8-19,0.8c-6.4,0-12.7-0.3-19-0.9c-11.1-19.1-20.2-51.1-26.4-90.3c14.9,1.2,30,1.8,45.4,1.8
		c14.2,0,28.6-0.5,42.6-1.6c4.1-0.3,7.2-3.9,6.9-8c-0.3-4.1-3.9-7.2-8-6.9c-13.7,1-27.7,1.6-41.5,1.6c-16.1,0-32.1-0.7-47.6-2.1
		c-4.1-30.3-6.4-64.2-6.7-99.2H317c4.1,0,7.5-3.4,7.5-7.5c0-3.5-2.4-6.4-5.6-7.2c-0.3-34.7-2.5-67.9-6.3-97.9
		c25.1,2.9,48.9,7.6,70.6,13.8c4.6,16.6,8,34.1,10,51.9c0.4,3.8,3.7,6.7,7.5,6.7c0.3,0,0.6,0,0.8,0c4.1-0.5,7.1-4.2,6.6-8.3
		c-1.7-15.3-4.4-30.4-8-45c20.4,6.9,38.5,15.3,53.7,24.9c3.8,12.6,6.4,25.6,7.8,38.9c0.4,3.9,3.7,6.7,7.5,6.7c0.3,0,0.5,0,0.8,0
		c4.1-0.4,7.1-4.1,6.7-8.2c-5.8-55.8-32-107.3-73.7-145.2c-42-38.1-96.4-59.1-153.2-59.1c-23.2,0-46,3.5-67.9,10.3
		c-4,1.2-6.2,5.4-4.9,9.4c1.2,4,5.4,6.2,9.4,4.9c8.7-2.7,17.5-4.8,26.4-6.4c-10,21.4-18.2,52.3-23.8,89.4c-8.5,0.9-17,2.1-25.3,3.4
		c-4.1,0.7-6.9,4.5-6.2,8.6c0.7,4.1,4.5,6.9,8.6,6.2c6.9-1.1,13.8-2.1,20.8-2.9c-1.2,9.4-2.2,19.1-3.1,29.1
		c-0.4,4.1,2.7,7.8,6.8,8.1c0.2,0,0.4,0,0.7,0c3.8,0,7.1-2.9,7.5-6.9c1-11,2.2-21.7,3.5-31.9c15.6-1.4,31.5-2.1,47.7-2.1
		c16.1,0,32.1,0.7,47.6,2.1c4.1,30.3,6.4,64.2,6.7,99.2H195.3c0.1-12,0.4-23.9,1-35.6c0.2-4.1-3-7.7-7.1-7.9c-4.2-0.2-7.7,3-7.9,7.1
		c-0.6,11.9-0.9,24.1-1,36.3h-76.3c0-2.2,0.1-4.4,0.2-6.7c0.2-4.1-3.1-7.6-7.2-7.8c-4.1-0.2-7.6,3.1-7.8,7.2c-0.1,2.5-0.2,5-0.2,7.3
		H36.6c0.7-19.9,4.1-39.4,10.2-58.3c1.3-3.9-0.9-8.2-4.8-9.5c-3.9-1.3-8.2,0.9-9.5,4.8c-7.4,22.7-11.1,46.4-11.1,70.4
		c0,60.9,23.7,118.2,66.8,161.3c43.1,43.1,100.4,66.8,161.3,66.8c34.4,0,67.5-7.5,98.3-22.2c3.7-1.8,5.3-6.3,3.5-10
		C350.5,451.4,348.9,450.1,347,449.5L347,449.5z M310.4,137c-5.6-36.7-13.7-67.7-23.8-89.4c11.1,1.9,21.9,4.8,32.5,8.4
		c18.7,16.1,35.3,38.9,47.9,66c4,8.6,7.7,17.7,10.9,27.1C356.9,143.8,334.1,139.6,310.4,137L310.4,137z M445.9,174.6
		c-15-7.8-32-14.7-50.6-20.4c-4.1-13.5-9-26.3-14.6-38.4c-7.5-16.1-16.4-30.9-26.3-43.8c13.6,7.7,26.5,17,38.3,27.7
		C415.9,120.7,434,146.3,445.9,174.6L445.9,174.6z M249.6,133.7c-15.3,0-30.5,0.6-45.4,1.8c6.3-39.4,15.6-71.5,26.5-90.3
		c6.3-0.6,12.6-0.8,18.9-0.8c6.4,0,12.7,0.3,19,0.8c11.1,19.1,20.2,51.1,26.4,90.3C280.1,134.3,264.9,133.7,249.6,133.7z
		 M212.5,467.4c-11.2-2-22-4.8-32.5-8.4c-25.4-21.9-45.6-54.5-58.8-93.1c21.1,5.5,43.9,9.6,67.6,12.2
		C194.3,414.7,202.5,445.7,212.5,467.4z M186.6,362.7c-25.1-2.9-48.9-7.6-70.7-13.8c-7.2-26.1-11.4-54.5-12-83.8h76.3
		C180.5,299.6,182.7,332.7,186.6,362.7L186.6,362.7z M36.6,265h52.3c0.5,27.3,4.1,53.8,10.2,78.6c-20.4-6.9-38.5-15.3-53.6-24.9
		C40.3,301.6,37.3,283.6,36.6,265L36.6,265z M53.3,340.5c15,7.8,32,14.6,50.6,20.4c9.6,31.3,23.4,59.3,40.8,82
		C104,419.8,71.7,383.8,53.3,340.5z"/>
</g>
</svg>
