<svg id="Capa_1" enable-background="new 0 0 512 512" height="512" viewBox="0 0 512 512" width="512" xmlns="http://www.w3.org/2000/svg"><g><path d="m445.729 371.072c8.095-9.336 12.553-21.294 12.553-33.672 0-28.374-23.081-51.458-51.452-51.458-14.939 0-29.117 6.481-38.901 17.782-8.094 9.342-12.551 21.302-12.551 33.676 0 28.371 23.081 51.452 51.452 51.452 14.941-.001 29.12-6.482 38.899-17.78zm-75.339-33.672c0-8.764 3.155-17.234 8.886-23.847 0-.001.001-.002.002-.002 6.93-8.006 16.973-12.597 27.552-12.597 20.094 0 36.441 16.35 36.441 36.447 0 8.765-3.154 17.232-8.888 23.844-6.93 8.006-16.973 12.597-27.553 12.597-20.093-.002-36.44-16.349-36.44-36.442z"/><path d="m476.164 268.609c-17.946-18.09-41.733-28.381-66.978-28.975-26.592-.626-51.685 9.247-70.681 27.801-19.001 18.559-29.466 43.406-29.466 69.964 0 12.705 2.421 25.095 7.196 36.825 1.562 3.839 5.942 5.684 9.781 4.122 3.839-1.563 5.685-5.942 4.122-9.781-4.04-9.924-6.087-20.41-6.087-31.166 0-22.481 8.858-43.514 24.943-59.225 16.08-15.705 37.339-24.072 59.838-23.532 21.348.502 41.476 9.218 56.675 24.54 15.199 15.321 23.755 35.52 24.094 56.874.291 18.42-5.343 35.941-16.345 50.743l-40.815 56.279c-7.354 10.142-12.425 21.493-15.07 33.735l-3.055 14.137c-.757 3.5-3.904 6.038-7.484 6.038s-6.727-2.54-7.483-6.039l-3.056-14.136c-2.646-12.243-7.717-23.594-15.072-33.736l-35.264-48.625c-2.433-3.355-7.126-4.103-10.483-1.669-3.355 2.434-4.103 7.126-1.669 10.483l35.264 48.624c6.125 8.446 10.348 17.898 12.551 28.095l3.055 14.136c2.238 10.361 11.556 17.879 22.155 17.879s19.917-7.52 22.155-17.879l3.056-14.137c2.203-10.195 6.425-19.647 12.55-28.094l40.762-56.208c12.942-17.409 19.599-38.11 19.255-59.865-.398-25.252-10.5-49.12-28.444-67.208z"/><path d="m87.172 122.936c12.396 0 24.162-5.379 32.275-14.751 6.717-7.748 10.417-17.67 10.417-27.941 0-6.232-1.323-12.253-3.933-17.897-1.74-3.763-6.201-5.403-9.962-3.663-3.763 1.739-5.402 6.2-3.663 9.962 1.689 3.655 2.547 7.558 2.547 11.598 0 6.658-2.397 13.089-6.752 18.111-5.264 6.081-12.892 9.57-20.929 9.57-15.263 0-27.68-12.417-27.68-27.68 0-6.657 2.397-13.091 6.752-18.116 5.264-6.081 12.892-9.57 20.929-9.57 1.418 0 2.841.108 4.231.32 4.098.63 7.927-2.186 8.554-6.284.627-4.097-2.186-7.928-6.284-8.554-2.139-.327-4.326-.493-6.502-.493-12.396 0-24.162 5.379-32.277 14.754-6.716 7.752-10.415 17.676-10.415 27.943.001 23.539 19.152 42.691 42.692 42.691z"/><path d="m55.727 172.79c4.782 6.593 8.078 13.971 9.798 21.931l2.446 11.32c1.94 8.979 10.015 15.495 19.202 15.495s17.262-6.517 19.202-15.495l2.446-11.319c1.72-7.961 5.017-15.339 9.798-21.931l32.627-44.99c10.56-14.204 15.993-31.096 15.712-48.848-.326-20.606-8.568-40.083-23.209-54.841-14.644-14.76-34.053-23.156-54.655-23.642-21.696-.515-42.172 7.546-57.673 22.685-15.504 15.143-24.044 35.417-24.044 57.087 0 17.278 5.437 33.724 15.671 47.488zm-13.817-138.897c12.208-11.924 28.222-18.435 45.252-18.435.523 0 1.052.006 1.577.019 16.704.393 32.455 7.214 44.351 19.206s18.593 27.797 18.857 44.507c.228 14.416-4.181 28.128-12.801 39.726l-32.679 45.06c-6.01 8.288-10.155 17.565-12.318 27.573l-2.446 11.319c-.458 2.119-2.363 3.656-4.529 3.656s-4.072-1.537-4.529-3.655l-2.446-11.319c-2.163-10.007-6.307-19.284-12.319-27.573l-32.731-45.132c-8.346-11.227-12.758-24.576-12.758-38.603-.003-17.593 6.931-34.054 19.519-46.349z"/><path d="m431.367 85.964c-2.796 3.06-2.582 7.808.478 10.604 1.44 1.316 3.252 1.964 5.061 1.964 2.034 0 4.063-.823 5.543-2.443l.13-.14c.181-.195.361-.391.526-.583 5.689-6.561 8.822-14.964 8.822-23.661 0-19.936-16.218-36.156-36.152-36.156-10.412 0-20.323 4.496-27.191 12.336-2.731 3.118-2.418 7.86.7 10.591 3.118 2.732 7.86 2.419 10.592-.7 4.018-4.586 9.813-7.217 15.9-7.217 11.657 0 21.141 9.486 21.141 21.145 0 5.085-1.83 9.995-5.161 13.838z"/><path d="m359.234 40.398c3.366 2.419 8.057 1.649 10.475-1.717 10.956-15.253 28.693-24.113 47.438-23.654 14.617.344 28.4 6.314 38.812 16.808 10.411 10.495 16.272 24.327 16.503 38.948.199 12.615-3.659 24.616-11.209 34.775l-7.759 10.699c-2.434 3.355-1.686 8.048 1.669 10.482 1.331.966 2.872 1.43 4.399 1.43 2.323 0 4.614-1.076 6.082-3.1l7.707-10.628c9.489-12.765 14.372-27.944 14.119-43.896-.292-18.518-7.7-36.021-20.855-49.282-13.158-13.262-30.6-20.807-49.115-21.243-23.711-.552-46.132 10.62-59.983 29.904-.662.923-2.631 5.625.524 9.404.352.39.748.751 1.193 1.07z"/><path d="m346.96 449.464c.011-2.08-.829-4.153-2.503-5.645-3.094-2.759-7.839-2.487-10.597.607-4.767 5.346-9.736 10.246-14.786 14.592-10.592 3.664-21.424 6.454-32.455 8.382 8.37-18.011 15.55-42.776 21.035-72.762.747-4.077-1.955-7.987-6.032-8.733-4.072-.746-7.987 1.954-8.733 6.032-6.182 33.796-14.777 61.201-24.364 77.829-6.265.546-12.583.833-18.953.833-6.393 0-12.715-.299-18.966-.854-11.057-19.13-20.189-51.127-26.405-90.27 14.856 1.207 30.029 1.83 45.371 1.83 14.209 0 28.554-.538 42.635-1.599 4.133-.312 7.232-3.915 6.921-8.048-.312-4.134-3.923-7.225-8.048-6.921-13.707 1.033-27.672 1.557-41.508 1.557-16.138 0-32.062-.71-47.596-2.065-4.051-30.321-6.428-64.173-6.726-99.223h121.716c4.145 0 7.506-3.36 7.506-7.506 0-3.472-2.361-6.385-5.562-7.242-.272-34.658-2.489-67.888-6.336-97.911 25.051 2.937 48.864 7.602 70.619 13.799 4.618 16.645 7.992 34.114 9.963 51.925.425 3.84 3.676 6.68 7.451 6.68.275 0 .554-.015.835-.046 4.12-.456 7.09-4.166 6.634-8.286-1.696-15.326-4.392-30.423-7.991-45.013 20.396 6.928 38.547 15.305 53.665 24.942 3.771 12.608 6.388 25.617 7.765 38.882.4 3.86 3.659 6.731 7.456 6.731.259 0 .521-.013.785-.041 4.123-.428 7.118-4.117 6.691-8.24-5.791-55.786-31.958-107.35-73.678-145.191-42.018-38.11-96.424-59.099-153.196-59.099-23.161 0-46.016 3.462-67.929 10.289-3.958 1.233-6.167 5.441-4.934 9.399 1.233 3.957 5.438 6.163 9.399 4.934 8.662-2.699 17.485-4.828 26.42-6.394-9.952 21.444-18.161 52.328-23.818 89.377-8.549.937-17.011 2.05-25.337 3.384-4.093.656-6.879 4.506-6.223 8.599.656 4.094 4.506 6.875 8.599 6.223 6.853-1.099 13.794-2.056 20.807-2.877-1.2 9.368-2.245 19.07-3.12 29.063-.362 4.129 2.692 7.771 6.821 8.132.223.02.444.029.664.029 3.849 0 7.126-2.944 7.468-6.851.964-10.996 2.151-21.659 3.529-31.919 15.625-1.361 31.547-2.072 47.654-2.072 16.138 0 32.062.71 47.596 2.065 4.051 30.321 6.428 64.173 6.726 99.223h-108.634c.099-11.955.421-23.899.988-35.604.2-4.141-2.993-7.66-7.133-7.86-4.158-.189-7.66 2.994-7.86 7.133-.578 11.946-.906 24.133-1.005 36.33h-76.339c.049-2.179.116-4.413.207-6.745.162-4.142-3.064-7.631-7.206-7.794-4.123-.178-7.632 3.063-7.794 7.206-.099 2.535-.173 4.966-.224 7.332h-52.283c.691-19.861 4.114-39.423 10.219-58.254 1.278-3.943-.883-8.176-4.826-9.454-3.944-1.278-8.176.883-9.454 4.826-7.356 22.697-11.086 46.378-11.086 70.388 0 60.93 23.727 118.213 66.811 161.298 43.085 43.084 100.367 66.811 161.298 66.811 34.418 0 67.505-7.482 98.34-22.237 3.739-1.789 5.32-6.271 3.531-10.009-.93-1.937-2.586-3.289-4.485-3.897zm-36.535-312.449c-5.601-36.712-13.749-67.726-23.794-89.367 11.073 1.947 21.94 4.764 32.511 8.411 18.721 16.132 35.284 38.92 47.945 66.028 4.032 8.633 7.667 17.72 10.887 27.15-21.111-5.477-43.837-9.605-67.549-12.222zm135.487 37.536c-15.004-7.831-32.026-14.679-50.591-20.41-4.108-13.451-8.999-26.343-14.633-38.406-7.538-16.139-16.423-30.871-26.313-43.794 13.644 7.716 26.503 16.964 38.307 27.671 23.219 21.059 41.278 46.664 53.23 74.939zm-196.34-40.853c-15.322 0-30.493.618-45.411 1.819 6.308-39.423 15.597-71.451 26.462-90.273 6.282-.553 12.602-.84 18.949-.84 6.358 0 12.683.289 18.962.847 11.059 19.131 20.193 51.133 26.41 90.283-14.857-1.206-30.028-1.836-45.372-1.836zm-37.054 333.671c-11.169-1.966-22.038-4.811-32.54-8.449-25.44-21.917-45.641-54.525-58.828-93.145 21.115 5.477 43.854 9.598 67.569 12.215 5.602 36.719 13.753 67.736 23.799 89.379zm-25.948-104.713c-25.066-2.938-48.891-7.607-70.656-13.809-7.232-26.126-11.401-54.497-12.01-83.839h76.333c.282 34.563 2.497 67.701 6.333 97.648zm-149.949-97.648h52.272c.547 27.256 4.062 53.766 10.188 78.596-20.385-6.922-38.527-15.293-53.643-24.921-5.131-17.096-8.17-35.085-8.817-53.675zm16.679 75.484c14.992 7.818 32.009 14.648 50.553 20.37 9.562 31.269 23.412 59.299 40.752 82.034-40.597-23.074-72.921-59.089-91.305-102.404z"/></g></svg>