<?xml version="1.0" encoding="utf-8"?>
<!-- Generator: Adobe Illustrator 23.0.0, SVG Export Plug-In . SVG Version: 6.00 Build 0)  -->
<svg version="1.1" id="Icons" xmlns="http://www.w3.org/2000/svg" xmlns:xlink="http://www.w3.org/1999/xlink" x="0px" y="0px"
	 viewBox="0 0 512 512" style="enable-background:new 0 0 512 512;" xml:space="preserve">
<style type="text/css">
	.st0{fill:#FFFFFF;}
</style>
<path class="st0" d="M256,498.2c-1,0-2-0.2-2.9-0.6c-120.3-56-192.2-152.6-192.2-258.3V93.1c0-1.9,0.8-3.8,2.3-5.1
	c1.4-1.3,3.4-2,5.3-1.8c76,7.3,135.7-15.6,182.3-70c1.3-1.5,3.2-2.4,5.3-2.4c2,0,3.9,0.9,5.3,2.4c45.6,53.5,105.3,76.4,182.4,70
	c3.8-0.3,7.2,2.5,7.5,6.3c0,0.2,0,0.4,0,0.6v146c0,6.9-0.3,13.9-1,20.8c-1.5,16.9-5,33.6-10.2,49.8c-2.2,7.2-4.9,14.2-7.8,21.1
	c-7.4,17.5-16.7,34.2-27.8,49.7c-1.4,2.1-3,4.3-4.6,6.5c-37.2,47.8-85.5,85.7-140.8,110.4C258,497.9,257,498.2,256,498.2z
	 M74.7,100.6v138.5c0,99.4,67.7,190.5,181.3,244.4c52-23.7,97.4-59.6,132.5-104.6c1.6-2.1,3-4.1,4.4-6.2
	c10.5-14.8,19.4-30.6,26.5-47.3c2.8-6.5,5.3-13.1,7.4-19.9c4.9-15.3,8.2-31,9.6-47c0.7-6.5,1-13,0.9-19.4V100.6
	c-75.4,4.6-134.9-18.2-181.3-69.3C208.7,83.2,149.2,106,74.7,100.6L74.7,100.6z"/>
<path class="st0" d="M401.5,266.2c-0.3,0-0.6,0-0.9-0.1c-3.8-0.5-6.5-3.9-6-7.7c0.8-6.4,1.1-12.8,1.1-19.2c0-3.8,3.1-6.9,6.9-7
	c3.8,0,6.9,3.1,7,6.9v0.1c0,7-0.4,14-1.2,20.9C407.9,263.6,405,266.2,401.5,266.2L401.5,266.2z"/>
<path class="st0" d="M380,335.2c-3.8,0-6.9-3.1-6.9-6.9c0-1.1,0.3-2.2,0.8-3.2c3.4-6.4,6.4-13,9.1-19.8c1.4-3.6,5.4-5.3,8.9-4
	c3.6,1.4,5.3,5.4,4,8.9l0,0c-2.8,7.3-6.1,14.4-9.7,21.3C385,333.7,382.6,335.2,380,335.2L380,335.2z"/>
<path class="st0" d="M256,451.9c-1.1,0-2.2-0.3-3.2-0.8c-94.2-49.6-150.4-128.8-150.4-211.9V135.7c0-3.7,2.9-6.7,6.6-6.9
	c52.3-1.8,102.5-21.1,142.5-54.9c2.6-2.2,6.3-2.2,8.9,0c40.2,33.4,90.4,52.6,142.6,54.5c3.7,0.2,6.6,3.2,6.5,6.9v55.4
	c0,3.8-3.1,6.9-6.9,6.9c-3.8,0-6.9-3.1-6.9-6.9v-49c-51-3.1-99.8-21.9-139.7-53.6c-39.8,32.1-88.7,51-139.8,54.1v97
	c0,78.1,50.9,150.1,139.8,197.9c31.8-16.7,60.4-38.7,84.7-65.1c2.5-2.9,6.9-3.2,9.8-0.7c2.9,2.5,3.2,6.9,0.7,9.8
	c-0.1,0.1-0.1,0.1-0.2,0.2c-26.2,28.5-57.3,52.1-91.8,69.8C258.2,451.6,257.1,451.9,256,451.9L256,451.9z"/>
</svg>
