<?xml version="1.0" encoding="utf-8"?>
<!-- Generator: Adobe Illustrator 23.0.0, SVG Export Plug-In . SVG Version: 6.00 Build 0)  -->
<svg version="1.1" id="Capa_1" xmlns="http://www.w3.org/2000/svg" xmlns:xlink="http://www.w3.org/1999/xlink" x="0px" y="0px"
	 viewBox="0 0 170.6 170.6" style="enable-background:new 0 0 170.6 170.6;" xml:space="preserve">
<style type="text/css">
	.st0{fill:#FFFFFF;}
</style>
<g>
	<g>
		<path class="st0" d="M165,98l-0.9-1.9c-3.3-7.2-6.6-14.7-6.5-31.1V30.8c0-1.7-1.4-3.1-3.1-3.1s-3.1,1.4-3.1,3.1V65
			c-0.2,17.7,3.7,26.2,7,33.7l0.8,1.9c5.6,12.6,6.6,22.6,2.9,29c-3.8,6.6-11.6,7.7-11.5,7.7H25.3c-15.2-0.4-19.1-9.3-19.1-14.4
			c0-2.9,1.2-4.8,2.1-4.8c7.7,0,21-1.5,27.4-2.7c19.6-3.8,57.9-24.1,68.6-43.1c3.2-5.7,4.5-18.9,3.9-40.3l0-1.4
			c0-1.7-1.4-3.1-3.1-3.1c-1.7,0-3.1,1.4-3.1,3.1l0,1.6c0.8,26.2-1.6,34.5-3.1,37.1c-9.6,17-45.8,36.4-64.4,40
			c-6.1,1.2-18.9,2.6-26.2,2.6c-4.7,0-8.2,4.6-8.3,11c-0.1,9.7,7.7,20.3,25.2,20.8l125.9,0c0.5-0.1,11.1-1.3,16.5-10.7
			C172.4,124.3,171.5,112.7,165,98z"/>
		<path class="st0" d="M115.1,110.5c3,0.4,5.7,0.7,8.3,0.7c8.2,0,14.1-2.3,17.7-6.9c7.6-9.8,1.1-25.6,0.8-26.3
			c-0.7-1.6-2.5-2.3-4.1-1.7c-1.6,0.7-2.3,2.5-1.7,4.1c1.5,3.6,4.5,14.3,0,20c-3.2,4.1-10,5.4-20.1,3.9c-1.7-0.3-3.3,0.9-3.5,2.6
			C112.2,108.6,113.4,110.2,115.1,110.5z"/>
	</g>
</g>
</svg>
