<?xml version="1.0" encoding="utf-8"?>
<!-- Generator: Adobe Illustrator 23.0.0, SVG Export Plug-In . SVG Version: 6.00 Build 0)  -->
<svg version="1.1" id="Capa_1" xmlns="http://www.w3.org/2000/svg" xmlns:xlink="http://www.w3.org/1999/xlink" x="0px" y="0px"
	 viewBox="0 0 512 512" style="enable-background:new 0 0 512 512;" xml:space="preserve">
<style type="text/css">
	.st0{fill:#FFFFFF;}
</style>
<g>
	<path class="st0" d="M400,187.6V106c0-20.7-16.8-37.5-37.5-37.5h-325C16.8,68.5,0,85.3,0,106v254c0,9.6,7.9,17.5,17.5,17.5h253.8
		c22,39.3,64.1,66,112.2,66c19.3,0,37.9-4.2,55.3-12.5c3.7-1.8,5.3-6.3,3.5-10c-1.8-3.7-6.3-5.3-10-3.5c-3.4,1.6-6.9,3.1-10.4,4.3
		l-5.4-16.7c-1.7-5.2-6.5-8.6-11.9-8.6h-42.2c-5.4,0-10.2,3.5-11.9,8.6l-5.4,16.7c-16.7-6-31.6-15.8-43.6-28.4l13.1-9.5
		c4.4-3.2,6.2-8.8,4.5-14L306,329.8c-1.7-5.2-6.5-8.6-11.9-8.6l-23.9,0c-0.1-2.1-0.2-4.1-0.2-6.2c0-19.5,4.9-37.9,13.6-53.9
		l16.9,12.3c4.4,3.2,10.3,3.2,14.7,0l34.1-24.8c4.4-3.2,6.2-8.8,4.5-14l-8.6-26.5c11.9-4.3,24.8-6.6,38.2-6.6s26.2,2.3,38.2,6.6
		l-8.6,26.5c-1.7,5.2,0.1,10.8,4.5,14l34.1,24.8c4.4,3.2,10.3,3.2,14.7,0l16.9-12.3c8.7,16,13.6,34.4,13.6,53.9
		c0,2.1-0.1,4.1-0.2,6.2l-23.9,0c-5.4,0-10.2,3.5-11.9,8.6l-13.1,40.1c-1.7,5.2,0.1,10.8,4.5,14l13.1,9.6c-1.9,2-3.9,3.9-6,5.8
		c-3.1,2.8-3.3,7.5-0.5,10.6c2.8,3.1,7.5,3.3,10.6,0.5C496.6,386,512,351.3,512,315C512,249.7,463.1,195.7,400,187.6L400,187.6z
		 M364.2,411.5h38.5l4.7,14.5c-7.8,1.7-15.8,2.5-24,2.5c-8.2,0-16.2-0.9-24-2.6L364.2,411.5z M305,213.3v-30.8h50v7.2
		C336.5,193.9,319.5,202.1,305,213.3z M175,297.5v-50h50v50H175z M225,312.5v50h-50v-50H225z M175,232.5v-50h50v50H175z M240,182.5
		h50v44.4c-1.7,1.8-3.3,3.7-4.9,5.6H240V182.5z M355,167.5h-50v-54h50V167.5z M290,167.5h-50v-54h50V167.5z M225,167.5h-50v-54h50
		V167.5z M160,167.5h-50v-54h50V167.5z M95,167.5H45v-54h50V167.5z M45,182.5h50v50H45V182.5z M110,182.5h50v50h-50V182.5z
		 M160,247.5v50h-50v-50H160z M160,312.5v50h-50v-50H160z M95,362.5H45v-50h50V362.5z M240,362.5v-50h15c0,0.8,0,1.7,0,2.5
		c0,16.8,3.2,32.8,9.1,47.5H240z M292.3,336.2l12,36.6l-12.4,9c-9.7-13.3-16.7-28.8-19.8-45.7L292.3,336.2z M256.2,297.5H240v-50
		h34.2C265,262.4,258.7,279.4,256.2,297.5z M339.1,237.5l-31.2,22.7l-16.3-11.8c10.4-14.3,24-26.1,39.8-34.3L339.1,237.5z
		 M370,187.2V111c0-6.9-5.6-12.5-12.5-12.5h-315c-6.9,0-12.5,5.6-12.5,12.5v159c0,4.1,3.4,7.5,7.5,7.5s7.5-3.4,7.5-7.5v-22.5h50v50
		H37.5c-4.1,0-7.5,3.4-7.5,7.5v57.5H17.5c-1.4,0-2.5-1.1-2.5-2.5V106c0-12.4,10.1-22.5,22.5-22.5h325c12.4,0,22.5,10.1,22.5,22.5
		v80.5c-0.5,0-1,0-1.5,0C378.9,186.5,374.4,186.7,370,187.2z M459.1,260.2l-31.2-22.7l7.6-23.4c15.8,8.2,29.4,20,39.8,34.3
		L459.1,260.2z M462.8,372.8l12-36.6l20.3,0c-3.1,16.5-9.9,32.1-19.8,45.7L462.8,372.8z"/>
	<path class="st0" d="M390.8,273c-4.4-3.2-10.3-3.2-14.7,0L342,297.8c-4.4,3.2-6.2,8.8-4.5,14l13,40.1c1.7,5.2,6.5,8.6,11.9,8.6
		h42.2c5.4,0,10.2-3.5,11.9-8.6l13-40.1c1.7-5.2-0.1-10.8-4.5-14L390.8,273z M402.8,345.5h-38.5l-11.9-36.7l31.2-22.7l31.2,22.7
		L402.8,345.5z"/>
</g>
</svg>
