<?xml version="1.0" encoding="utf-8"?>
<!-- Generator: Adobe Illustrator 23.0.0, SVG Export Plug-In . SVG Version: 6.00 Build 0)  -->
<svg version="1.1" id="Capa_1" xmlns="http://www.w3.org/2000/svg" xmlns:xlink="http://www.w3.org/1999/xlink" x="0px" y="0px"
	 viewBox="0 0 512 512" style="enable-background:new 0 0 512 512;" xml:space="preserve">
<style type="text/css">
	.st0{fill:#FFFFFF;}
</style>
<g>
	<path class="st0" d="M466.1,460.5h-30.2l0-203c0-4.1-3.4-7.5-7.5-7.5s-7.5,3.4-7.5,7.5l0,203h-73.6v-27h28.1c4.1,0,7.5-3.4,7.5-7.5
		s-3.4-7.5-7.5-7.5h-28.1v-27h11.9c4.1,0,7.5-3.4,7.5-7.5s-3.4-7.5-7.5-7.5h-11.9v-27h28.1c4.1,0,7.5-3.4,7.5-7.5s-3.4-7.5-7.5-7.5
		h-28.1v-27h11.9c4.1,0,7.5-3.4,7.5-7.5s-3.4-7.5-7.5-7.5h-11.9v-27h28.1c4.1,0,7.5-3.4,7.5-7.5c0-4.1-3.4-7.5-7.5-7.5h-28.1v-27
		h11.9c4.1,0,7.5-3.4,7.5-7.5s-3.4-7.5-7.5-7.5h-11.9v-27h28.1c4.1,0,7.5-3.4,7.5-7.5s-3.4-7.5-7.5-7.5h-28.1v-27h11.9
		c4.1,0,7.5-3.4,7.5-7.5s-3.4-7.5-7.5-7.5h-11.9v-27h28.1c4.1,0,7.5-3.4,7.5-7.5s-3.4-7.5-7.5-7.5h-28.1v-27h73.6V223
		c0,4.1,3.4,7.5,7.5,7.5s7.5-3.4,7.5-7.5V55.1c6.7-0.2,12.1-5.7,12.1-12.5V12.5C448,5.6,442.4,0,435.4,0h-230
		c-4.1,0-7.5,3.4-7.5,7.5s3.4,7.5,7.5,7.5H280v12.6c0,15.2,12.4,27.6,27.6,27.6h24.8v405.4h-83c-2.7-15.1-18.3-27.6-34.1-31.7
		c-1.7-0.4-2.7-0.8-3.2-1c-0.1-1.1-0.1-3.2-0.1-4.5v-40.3c5.7-1.2,9.9-6.2,9.9-12.2v-64.3c3.2,1.5,6.8,2.3,10.6,2.3
		c14.1,0,25.6-11.5,25.6-25.6v-56.5V218c0-21.5-6.3-39.8-18.1-53.1c-8.6-9.7-19.7-16.1-32.7-19.1c9.9-11.2,16.3-24.9,16.3-37.4V92.7
		c0-19.8-6.3-36.6-18.3-48.6C194.4,33.4,180,27.3,164.5,27c-0.1,0-0.2,0-0.2,0c-15.5,0.3-29.9,6.3-40.6,17.1
		c-12,12-18.3,28.8-18.3,48.6v15.8c0,12.5,6.4,26.2,16.3,37.4c-12.9,3-24.1,9.4-32.7,19.1c-11.8,13.3-18.1,31.6-18.1,53.1v8.8v56.5
		c0,14.1,11.5,25.6,25.6,25.6c3.8,0,7.3-0.8,10.6-2.3v64.3c0,6,4.3,11.1,9.9,12.2v40.3c0,1.3,0,3.3-0.1,4.5c-0.5,0.2-1.5,0.5-3.2,1
		c-15.8,4.1-31.4,16.6-34.1,31.7H58.7c-14.2,0-25.7,11.5-25.7,25.7v13.3c0,6.8,5.6,12.4,12.4,12.4h420.7c7.1,0,12.9-5.8,12.9-12.9
		v-25.6C479,466.4,473.2,460.5,466.1,460.5L466.1,460.5z M295,27.6V15h138v25.2H307.5C300.6,40.2,295,34.5,295,27.6z M233.8,460.5
		h-61.9v-77.2h24.9v40c0,11,1.4,16.6,14.6,20C220,445.6,230.6,452.5,233.8,460.5z M242.9,283.3c0,5.8-4.7,10.6-10.6,10.6
		s-10.6-4.7-10.6-10.6v-49h21.1V283.3z M164.4,42c19.1,0.4,39.5,13.3,43.4,40.8c-2.1-1.2-3.6-2.7-5.2-4.4c-3-3.1-7.3-7.5-14.9-7.5
		c-1.8,0-3.7,0.2-5.8,0.8c-2.7,0.7-15.4,4.1-17.5,4.1c-2.2,0-14.8-3.4-17.5-4.1c-11.3-2.9-16.9,2.9-20.7,6.7
		c-1.6,1.7-3.1,3.2-5.2,4.4C125,55.4,145.3,42.4,164.4,42z M120.3,108.4v-9.4c8.7-2.2,13.3-6.8,16.6-10.1c3.2-3.3,3.4-3.4,6.2-2.7
		c2.7,0.7,17.1,4.5,21.3,4.5s18.6-3.9,21.3-4.5c2.9-0.7,3-0.6,6.2,2.7c3.2,3.3,7.8,8,16.6,10.2v9.3c0,15.7-16.1,36-33.8,42.6
		c-3.9,1.4-7.1,2.1-10.3,2.1c-3.1,0-6.4-0.7-10.3-2.1C136.4,144.4,120.3,124.1,120.3,108.4L120.3,108.4z M182.2,164.2
		c-1.1,10.1-8.6,17.9-17.8,17.9c-9.1,0-16.7-7.8-17.8-17.9c0.7,0.3,1.5,0.6,2.2,0.9c5.6,2.1,10.6,3,15.5,3c5,0,9.9-1,15.5-3
		C180.7,164.8,181.4,164.5,182.2,164.2L182.2,164.2z M131.5,159.3v2.3c0,19.6,14.8,35.5,32.9,35.5c18.2,0,32.9-15.9,32.9-35.5v-2.3
		c28.3,3.2,45.6,25.1,45.6,58.7v1.3h-28.6c-4.1,0-7.5,3.4-7.5,7.5v49h-26.3c-4.1,0-7.5,3.4-7.5,7.5s3.4,7.5,7.5,7.5h26.3v77.6h-34.9
		v-38.5h7.7c4.1,0,7.5-3.4,7.5-7.5s-3.4-7.5-7.5-7.5h-30.4c-4.1,0-7.5,3.4-7.5,7.5s3.4,7.5,7.5,7.5h7.7v38.5H122v-77.6h26.6
		c4.1,0,7.5-3.4,7.5-7.5s-3.4-7.5-7.5-7.5H122v-49c0-4.1-3.4-7.5-7.5-7.5H85.9V218C85.9,184.4,103.1,162.5,131.5,159.3L131.5,159.3z
		 M96.5,293.8c-5.8,0-10.6-4.7-10.6-10.6v-49H107v49C107,289.1,102.3,293.8,96.5,293.8z M117.4,443.4c13.1-3.4,14.6-9,14.6-20v-40
		h24.9v77.2H95C98.2,452.5,108.8,445.6,117.4,443.4L117.4,443.4z M464,497H48v-10.7c0-5.9,4.8-10.7,10.7-10.7H464V497z"/>
</g>
</svg>
