<?xml version="1.0" encoding="utf-8"?>
<!-- Generator: Adobe Illustrator 23.0.0, SVG Export Plug-In . SVG Version: 6.00 Build 0)  -->
<svg version="1.1" id="Capa_1" xmlns="http://www.w3.org/2000/svg" xmlns:xlink="http://www.w3.org/1999/xlink" x="0px" y="0px"
	 viewBox="0 0 512 512" style="enable-background:new 0 0 512 512;" xml:space="preserve">
<style type="text/css">
	.st0{fill:#FFFFFF;}
</style>
<path class="st0" d="M511.6,242.3c-0.2-4.1-3.8-7.3-7.9-7.1c-4.1,0.2-7.3,3.8-7.1,7.9c0.2,4.3,0.3,8.6,0.3,12.9
	c0,64.4-25.1,124.9-70.6,170.4S320.4,497,256,497s-124.9-25.1-170.4-70.6S15,320.4,15,256S40.1,131.1,85.6,85.6S191.6,15,256,15
	c56.8,0,112,20.1,155.3,56.7c42.8,36.1,71.9,86.2,81.8,141.1c0.7,4.1,4.6,6.8,8.7,6c4.1-0.7,6.8-4.6,6-8.7
	C497.4,151.9,466.5,98.6,421,60.2C374.9,21.4,316.3,0,256,0C187.6,0,123.3,26.6,75,75C26.6,123.3,0,187.6,0,256s26.6,132.7,75,181
	c48.4,48.4,112.6,75,181,75s132.7-26.6,181-75c48.4-48.4,75-112.6,75-181C512,251.4,511.9,246.8,511.6,242.3L511.6,242.3z"/>
<path class="st0" d="M83.8,133.4c-3.5-2.3-8.1-1.3-10.4,2.1C49.8,171.3,37.3,212.9,37.3,256c0,58.4,22.8,113.4,64.1,154.7
	s96.2,64.1,154.7,64.1s113.4-22.8,154.7-64.1s64.1-96.2,64.1-154.7S452,142.6,410.7,101.3S314.4,37.3,256,37.3
	c-31.1,0-61.1,6.4-89.2,19c-27.2,12.2-51.2,29.4-71.5,51.4c-2.8,3-2.6,7.8,0.4,10.6c3,2.8,7.8,2.6,10.6-0.4
	c18.9-20.5,41.3-36.6,66.6-47.9c26.2-11.7,54.1-17.7,83.1-17.7c112.3,0,203.7,91.4,203.7,203.7S368.3,459.7,256,459.7
	S52.3,368.3,52.3,256c0-40.1,11.6-78.9,33.7-112.2C88.2,140.3,87.3,135.7,83.8,133.4z"/>
<path class="st0" d="M73.9,256c0,4.1,3.4,7.5,7.5,7.5h10.8c4.1,0,7.5-3.4,7.5-7.5s-3.4-7.5-7.5-7.5H81.4
	C77.3,248.5,73.9,251.9,73.9,256z"/>
<path class="st0" d="M263.5,81.4c0-4.1-3.4-7.5-7.5-7.5s-7.5,3.4-7.5,7.5V256c0,4.1,3.4,7.5,7.5,7.5h174.6c4.1,0,7.5-3.4,7.5-7.5
	s-3.4-7.5-7.5-7.5H263.5V81.4z"/>
<path class="st0" d="M248.5,430.6c0,4.1,3.4,7.5,7.5,7.5s7.5-3.4,7.5-7.5v-10.8c0-4.1-3.4-7.5-7.5-7.5s-7.5,3.4-7.5,7.5V430.6z"/>
<path class="st0" d="M134.9,145.5c1.5,1.5,3.4,2.2,5.3,2.2s3.8-0.7,5.3-2.2c2.9-2.9,2.9-7.7,0-10.6l-7.6-7.6
	c-2.9-2.9-7.7-2.9-10.6,0c-2.9,2.9-2.9,7.7,0,10.6L134.9,145.5z"/>
<path class="st0" d="M366.5,366.5c-2.9,2.9-2.9,7.7,0,10.6l7.6,7.6c1.5,1.5,3.4,2.2,5.3,2.2s3.8-0.7,5.3-2.2c2.9-2.9,2.9-7.7,0-10.6
	l-7.6-7.6C374.2,363.6,369.5,363.6,366.5,366.5L366.5,366.5z"/>
<path class="st0" d="M377.1,145.5l7.6-7.6c2.9-2.9,2.9-7.7,0-10.6c-2.9-2.9-7.7-2.9-10.6,0l-7.6,7.6c-2.9,2.9-2.9,7.7,0,10.6
	c1.5,1.5,3.4,2.2,5.3,2.2S375.7,146.9,377.1,145.5L377.1,145.5z"/>
<path class="st0" d="M127.2,384.8c1.5,1.5,3.4,2.2,5.3,2.2s3.8-0.7,5.3-2.2l7.6-7.6c2.9-2.9,2.9-7.7,0-10.6c-2.9-2.9-7.7-2.9-10.6,0
	l-7.6,7.6C124.3,377.1,124.3,381.8,127.2,384.8z"/>
<path class="st0" d="M108.2,185l-9.9-4.2c-3.8-1.6-8.2,0.2-9.8,4c-1.6,3.8,0.2,8.2,4,9.8l9.9,4.2c1,0.4,2,0.6,2.9,0.6
	c2.9,0,5.7-1.7,6.9-4.6C113.7,191,112,186.6,108.2,185L108.2,185z"/>
<path class="st0" d="M409.7,313.2c-3.8-1.6-8.2,0.2-9.8,4c-1.6,3.8,0.2,8.2,4,9.8l9.9,4.2c1,0.4,2,0.6,2.9,0.6
	c2.9,0,5.7-1.7,6.9-4.6c1.6-3.8-0.2-8.2-4-9.8L409.7,313.2z"/>
<path class="st0" d="M320.1,112.7c2.9,0,5.7-1.7,6.9-4.6l4.2-9.9c1.6-3.8-0.2-8.2-4-9.8c-3.8-1.6-8.2,0.2-9.8,4l-4.2,9.9
	c-1.6,3.8,0.2,8.2,4,9.8C318.1,112.5,319.1,112.7,320.1,112.7z"/>
<path class="st0" d="M184.8,423.6c1,0.4,2,0.6,2.9,0.6c2.9,0,5.7-1.7,6.9-4.6l4.2-9.9c1.6-3.8-0.2-8.2-4-9.8s-8.2,0.2-9.8,4
	l-4.2,9.9C179.2,417.6,181,422,184.8,423.6z"/>
<path class="st0" d="M194.7,111.6c0.9,0,1.9-0.2,2.8-0.5c3.8-1.6,5.7-5.9,4.1-9.8l-4-10c-1.5-3.8-5.9-5.7-9.8-4.1
	c-3.8,1.6-5.7,5.9-4.1,9.8l4,10C188.9,109.8,191.7,111.6,194.7,111.6z"/>
<path class="st0" d="M314.5,401c-3.8,1.5-5.7,5.9-4.1,9.8l4,10c1.2,2.9,4,4.7,7,4.7c0.9,0,1.9-0.2,2.8-0.5c3.8-1.5,5.7-5.9,4.1-9.8
	l-4-10C322.7,401.3,318.3,399.4,314.5,401L314.5,401z"/>
<path class="st0" d="M407.9,202.2c0.9,0,1.9-0.2,2.8-0.5l10-4c3.8-1.6,5.7-5.9,4.1-9.8c-1.5-3.8-5.9-5.7-9.8-4.1l-10,4
	c-3.8,1.6-5.7,5.9-4.1,9.8C402.2,200.4,405,202.2,407.9,202.2z"/>
<path class="st0" d="M101.3,310.3l-10,4c-3.8,1.5-5.7,5.9-4.1,9.8c1.2,2.9,4,4.7,7,4.7c0.9,0,1.9-0.2,2.8-0.5l10-4
	c3.8-1.5,5.7-5.9,4.1-9.8S105.1,308.8,101.3,310.3L101.3,310.3z"/>
</svg>
