<?xml version="1.0" encoding="utf-8"?>
<!-- Generator: Adobe Illustrator 23.0.0, SVG Export Plug-In . SVG Version: 6.00 Build 0)  -->
<svg version="1.1" id="Layer_1" xmlns="http://www.w3.org/2000/svg" xmlns:xlink="http://www.w3.org/1999/xlink" x="0px" y="0px"
	 viewBox="0 0 512 512" style="enable-background:new 0 0 512 512;" xml:space="preserve">
<style type="text/css">
	.st0{fill:#FFFFFF;}
</style>
<g>
	<g>
		<path class="st0" d="M438.9,119.2c-3.3-2.2-7.7-1.5-10.1,1.6L216.1,389.4c-6.3,7.9-9.1,17.8-8,27.9s6.1,19.1,14.1,25.4
			c6.8,5.4,15,8.3,23.5,8.3c1.4,0,2.9-0.1,4.3-0.2c10.1-1.1,19.1-6.1,25.4-14.1c1.7-2.1,3.9-5.8,4.3-6.5c0.1-0.1,0.1-0.2,0.2-0.3
			l161.4-300.6C443.2,125.7,442.1,121.4,438.9,119.2z M266.7,422.4c-0.9,1.4-2.4,3.8-3.1,4.7c-3.8,4.7-9.2,7.7-15.2,8.4
			c-6,0.7-11.9-1-16.7-4.8c-4.7-3.8-7.7-9.2-8.4-15.2c-0.7-6,1-12,4.8-16.7l159.4-201.3L266.7,422.4z"/>
	</g>
</g>
<g>
	<g>
		<path class="st0" d="M447.8,154c-2.7-3.2-7.5-3.5-10.7-0.8s-3.5,7.5-0.8,10.7c37.4,43.5,58.7,98.6,60.4,155.9h-64.4
			c-4.1-28.6-13.2-55.8-27.3-81.1c-2-3.7-6.7-5-10.3-3c-3.7,2-5,6.7-3,10.3c14.2,25.5,23,53.2,26.3,82.2c0.4,3.8,3.7,6.7,7.6,6.7
			h78.8c4.2,0,7.6-3.4,7.6-7.6C512,263.7,489.2,202.2,447.8,154z"/>
	</g>
</g>
<g>
	<g>
		<path class="st0" d="M402.9,112.4c-24.8-18.2-52.2-31.8-81.6-40.4c-24.4-7.2-49.8-10.9-75.6-10.9c-32.7,0-64.6,5.9-94.9,17.4
			c-3.9,1.5-5.9,5.9-4.4,9.8c1.5,3.9,5.9,5.9,9.8,4.4c28.5-10.9,58.6-16.4,89.4-16.4c24.3,0,48.2,3.4,71.3,10.3
			c27.7,8.2,53.5,21,76.9,38.1c1.4,1,2.9,1.5,4.5,1.5c2.3,0,4.7-1.1,6.1-3.1C407,119.7,406.3,114.9,402.9,112.4z"/>
	</g>
</g>
<g>
	<g>
		<path class="st0" d="M361.3,182.2c-20.1-19.1-43-34.4-68.3-45.5c-30-13.1-61.9-19.8-94.9-19.8c-53.3,0-104.2,17.9-145.1,49.7
			c21.9-26.2,49-47.9,80-63.5c3.8-1.9,5.3-6.5,3.4-10.2c-1.9-3.8-6.5-5.3-10.2-3.4c-56.3,28.4-100.9,76-125.5,134
			c-1.5,3.6-0.1,7.8,3.4,9.7c1.1,0.6,2.4,0.9,3.6,0.9c2.5,0,4.9-1.2,6.3-3.4c41.2-61.7,110.1-98.6,184.2-98.6
			c30.9,0,60.7,6.2,88.8,18.5c23.6,10.4,45.2,24.7,63.9,42.6c3,2.9,7.9,2.8,10.8-0.3C364.5,189.9,364.3,185.1,361.3,182.2z"/>
	</g>
</g>
<g>
	<g>
		<path class="st0" d="M247,409.1c-2.7-1.7-6.4-1.5-8.9,0.5c-5.4,4.4-2.1,13.5,4.8,13.5c3.4,0,6.5-2.4,7.4-5.8
			C251.1,414.2,249.8,410.8,247,409.1z"/>
	</g>
</g>
</svg>
