<?xml version="1.0" encoding="utf-8"?>
<!-- Generator: Adobe Illustrator 23.0.0, SVG Export Plug-In . SVG Version: 6.00 Build 0)  -->
<svg version="1.1" id="Capa_1" xmlns="http://www.w3.org/2000/svg" xmlns:xlink="http://www.w3.org/1999/xlink" x="0px" y="0px"
	 viewBox="0 0 512 512" style="enable-background:new 0 0 512 512;" xml:space="preserve">
<style type="text/css">
	.st0{fill:#FFFFFF;}
</style>
<g>
	<g>
		<path class="st0" d="M467.9,40.7C441.6,14.4,406.7,0,369.6,0s-72,14.4-98.2,40.7C248.1,64,233.8,95,231.2,127.9
			c-2.4,30.2,5.2,60.4,21.4,85.7L12.2,453.9c-11.7,11.7-11.7,30.7,0,42.4c5.7,5.7,13.2,8.8,21.2,8.8s15.5-3.1,21.2-8.8l25.8-25.8
			l32.7,32.7c5.7,5.7,13.2,8.8,21.2,8.8s15.5-3.1,21.2-8.8c11.7-11.7,11.7-30.7,0-42.4l-17.3-17.3l19.3-19.3l17.3,17.3
			c5.7,5.7,13.2,8.8,21.2,8.8s15.5-3.1,21.2-8.8c5.7-5.7,8.8-13.2,8.8-21.2s-3.1-15.5-8.8-21.2l-32.7-32.7L294.9,256
			c22.3,14.3,48,21.8,74.7,21.8c37.1,0,72-14.4,98.2-40.7c26.2-26.2,40.7-61.1,40.7-98.2C508.5,101.8,494.1,66.9,467.9,40.7z
			 M456.3,225.6c-23.1,23.1-53.9,35.9-86.6,35.9c-25.7,0-50.2-7.8-71-22.6c-3.3-2.3-7.7-1.9-10.5,0.9l-121,121
			c-1.5,1.5-2.4,3.6-2.4,5.8s0.9,4.2,2.4,5.8l38.5,38.5c2.6,2.6,4,6,4,9.6c0,3.6-1.4,7.1-4,9.6c-2.6,2.6-6,4-9.6,4
			c-3.6,0-7.1-1.4-9.6-4l-23.1-23.1c-3.2-3.2-8.4-3.2-11.6,0l-30.8,30.8c-3.2,3.2-3.2,8.4,0,11.6l23.1,23.1c5.3,5.3,5.3,13.9,0,19.3
			c-2.6,2.6-6,4-9.6,4c-3.6,0-7.1-1.4-9.6-4l-38.5-38.5c-1.6-1.6-3.7-2.4-5.8-2.4c-2.1,0-4.2,0.8-5.8,2.4L43,484.8
			c-2.6,2.6-6,4-9.6,4s-7.1-1.4-9.6-4c-5.3-5.3-5.3-13.9,0-19.3l245.1-245.1c2.8-2.8,3.2-7.3,0.9-10.5
			C234.9,161,240.5,94.7,283,52.2c23.1-23.1,53.9-35.9,86.7-35.9c32.7,0,63.5,12.7,86.7,35.9c23.1,23.1,35.9,53.9,35.9,86.7
			C492.2,171.6,479.4,202.4,456.3,225.6z"/>
	</g>
</g>
<g>
	<g>
		<path class="st0" d="M457,134.3c-4.5-0.2-8.3,3.3-8.5,7.8c-0.8,19.9-9,38.5-23.1,52.6c-14.9,14.9-34.7,23.1-55.8,23.1
			c-21.1,0-40.9-8.2-55.8-23.1c-30.8-30.8-30.8-80.9,0-111.7c14.9-14.9,34.8-23.1,55.8-23.1c21.1,0,40.9,8.2,55.8,23.1
			c8.4,8.4,14.7,18.3,18.6,29.5c1.5,4.3,6.2,6.5,10.4,5c4.3-1.5,6.5-6.2,5-10.4c-4.8-13.5-12.3-25.4-22.5-35.6
			c-18-18-41.9-27.9-67.4-27.9s-49.4,9.9-67.4,27.9c-37.2,37.2-37.2,97.6,0,134.8c18,18,41.9,27.9,67.4,27.9s49.4-9.9,67.4-27.9
			c17-17,26.8-39.5,27.8-63.5C465.1,138.3,461.5,134.5,457,134.3z"/>
	</g>
</g>
</svg>
