<?xml version="1.0" encoding="utf-8"?>
<!-- Generator: Adobe Illustrator 23.0.0, SVG Export Plug-In . SVG Version: 6.00 Build 0)  -->
<svg version="1.1" id="Capa_1" xmlns="http://www.w3.org/2000/svg" xmlns:xlink="http://www.w3.org/1999/xlink" x="0px" y="0px"
	 viewBox="0 0 512 512" style="enable-background:new 0 0 512 512;" xml:space="preserve">
<style type="text/css">
	.st0{fill:#FFFFFF;}
</style>
<g>
	<path class="st0" d="M176.5,229.4c11.2-2.9,22.9-4.4,34.6-4.4c15.4,0,30.4,2.5,44.7,7.5c-10.4,32.2-7,67.2,9.6,96.9
		c1.4,2.5,3.9,3.8,6.6,3.8c1.2,0,2.5-0.3,3.7-1c3.6-2,4.9-6.6,2.9-10.2c-15.9-28.4-17.1-61.2-6.1-91.4l43-117.5H338
		c9.6,0,17.5-7.9,17.5-17.5V46.3c0-4.1-3.4-7.5-7.5-7.5s-7.5,3.4-7.5,7.5v49.3c0,1.4-1.1,2.5-2.5,2.5h-13.2V46.3
		c0-4.1-3.4-7.5-7.5-7.5s-7.5,3.4-7.5,7.5v51.8h-15.7V46.3c0-4.1-3.4-7.5-7.5-7.5s-7.5,3.4-7.5,7.5v51.8h-10.1c0,0-0.1,0-0.1,0
		s-0.1,0-0.1,0h-5.4V46.3c0-4.1-3.4-7.5-7.5-7.5s-7.5,3.4-7.5,7.5v51.8h-15.7V37.9c0-12.6,10.3-22.9,22.9-22.9h90.5
		c16.9,0,29.8,11.6,34.3,27.4l35,166.3c0.7,3.5,3.9,6,7.3,6c0.5,0,1-0.1,1.6-0.2c4.1-0.9,6.6-4.8,5.8-8.9l-35-166.3
		C390.9,16.4,369,0,346.3,0h-90.5c-20.9,0-37.9,17-37.9,37.9v83c0,10,8.1,18.1,18.1,18.1h22.4c10,0,18.1-8.1,18.1-18.1v-7.8h23
		L261,218.4c-16-5.6-32.7-8.4-49.8-8.4c-13,0-26,1.7-38.4,4.9c-4,1.1-6.4,5.2-5.4,9.2C168.4,228.1,172.5,230.5,176.5,229.4
		L176.5,229.4z M261.5,120.9c0,1.7-1.4,3.1-3.1,3.1H236c-1.7,0-3.1-1.4-3.1-3.1v-7.8h28.6V120.9z"/>
	<path class="st0" d="M77.4,385.5c-1.5-8.4-2.3-16.9-2.2-25.5c0.4-50.1,28.2-95.9,72.5-119.3c3.7-1.9,5.1-6.5,3.1-10.1
		c-1.9-3.7-6.5-5.1-10.1-3.1c-49.3,26-80.1,76.8-80.5,132.5c-0.1,9.5,0.8,19,2.5,28.3c0.7,3.6,3.8,6.1,7.4,6.1c0.5,0,0.9,0,1.4-0.1
		C75.4,393.5,78.1,389.6,77.4,385.5L77.4,385.5z"/>
	<path class="st0" d="M449.5,296.6c0-0.1,0-0.2-0.1-0.3L437,237.5c-0.9-4.1-4.8-6.7-8.9-5.8c-4.1,0.9-6.6,4.8-5.8,8.9l12.3,58.4
		c0,0.2,0.1,0.3,0.1,0.5c2.5,11.2,2.8,22.8,0.9,34.3c-3.2,19.4-12.4,36.9-26.6,50.5c-13.7,13.1-31.6,21.8-50.4,24.4
		c-12.2,1.7-23.2,9-29.2,19.7c-24.2,42.4-69.5,68.8-118.2,68.8c-53.9,0-102.8-32.1-124.7-81.9c-1.7-3.8-6.1-5.5-9.9-3.9
		c-3.8,1.7-5.5,6.1-3.9,9.9C97,476.3,151.3,512,211.2,512c54.1,0,104.4-29.2,131.3-76.3c3.8-6.6,10.6-11.2,18.2-12.2
		c21.8-3,42.7-13.1,58.7-28.4c16.6-15.9,27.3-36.2,31.1-58.9C452.6,322.9,452.3,309.6,449.5,296.6L449.5,296.6z"/>
	<path class="st0" d="M211.4,300.6c0,50.7-41.3,92-92.1,92c-4.1,0-7.5,3.4-7.5,7.5c0,4.1,3.4,7.5,7.5,7.5c59,0,107-48,107-107
		c0-4.1-3.4-7.5-7.5-7.5C214.8,293.1,211.4,296.4,211.4,300.6z"/>
</g>
</svg>
