<?xml version="1.0" encoding="utf-8"?>
<!-- Generator: Adobe Illustrator 23.0.0, SVG Export Plug-In . SVG Version: 6.00 Build 0)  -->
<svg version="1.1" id="Capa_1" xmlns="http://www.w3.org/2000/svg" xmlns:xlink="http://www.w3.org/1999/xlink" x="0px" y="0px"
	 viewBox="0 0 512 512" style="enable-background:new 0 0 512 512;" xml:space="preserve">
<style type="text/css">
	.st0{fill:#FFFFFF;}
</style>
<g>
	<path class="st0" d="M256,245.3c46.3,0,83.9-37.6,83.9-83.9S302.3,77.4,256,77.4s-83.9,37.6-83.9,83.9S209.7,245.3,256,245.3z
		 M256,107.4c29.7,0,53.9,24.2,53.9,53.9c0,29.7-24.2,53.9-53.9,53.9s-53.9-24.2-53.9-53.9C202.1,131.6,226.3,107.4,256,107.4z"/>
	<path class="st0" d="M164.6,312.1c22.7,30.8,13.6,18.8,79.1,112.3c6,8.5,18.6,8.6,24.6,0c65.8-93.9,56.7-82,79.1-112.3
		c22.7-30.7,46.1-62.4,58.9-99.6c18.6-53.8,10.5-107-22.6-149.9c0,0,0,0,0,0C353.3,23.4,305.6,0,256,0s-97.3,23.4-127.7,62.7
		c-33.2,42.9-41.2,96.1-22.6,149.9C118.5,249.7,142,281.5,164.6,312.1L164.6,312.1z M152,81c24.7-32,63.6-51,104-51
		s79.2,19.1,104,51l0,0c26.8,34.6,33.2,77.8,18,121.7c-11.3,32.8-33.4,62.7-54.7,91.5c-16.6,22.5-11.6,15.6-67.3,95.3
		c-55.6-79.7-50.7-72.9-67.3-95.3c-21.3-28.9-43.4-58.7-54.7-91.5C118.9,158.9,125.3,115.6,152,81L152,81z"/>
	<path class="st0" d="M176.9,377.2c-4.4-7-13.7-9.1-20.7-4.7l-42.7,26.9c-9.3,5.9-9.3,19.5,0,25.4L248,509.7c4.9,3.1,11.1,3.1,16,0
		l134.4-84.9c9.3-5.9,9.3-19.5,0-25.4l-42.6-26.9c-7-4.4-16.3-2.3-20.7,4.7c-4.4,7-2.3,16.3,4.7,20.7l22.6,14.3L256,479.3
		l-106.3-67.1l22.6-14.3C179.3,393.4,181.4,384.2,176.9,377.2L176.9,377.2z"/>
</g>
</svg>
