<?xml version="1.0" encoding="utf-8"?>
<!-- Generator: Adobe Illustrator 23.0.0, SVG Export Plug-In . SVG Version: 6.00 Build 0)  -->
<svg version="1.1" id="Icons" xmlns="http://www.w3.org/2000/svg" xmlns:xlink="http://www.w3.org/1999/xlink" x="0px" y="0px"
	 viewBox="0 0 512 512" style="enable-background:new 0 0 512 512;" xml:space="preserve">
<style type="text/css">
	.st0{fill:#FFFFFF;}
</style>
<path class="st0" d="M422.1,498.2H89.9c-3.8,0-6.9-3.1-6.9-6.9V20.8c0-3.8,3.1-6.9,6.9-6.9h332.1c3.8,0,6.9,3.1,6.9,6.9v301.2
	c0,3.8-3.1,6.9-6.9,6.9c-3.8,0-6.9-3.1-6.9-6.9V27.7H96.9v456.6h318.3v-45.2c0-3.8,3.1-6.9,6.9-6.9c3.8,0,6.9,3.1,6.9,6.9v52.1
	C429,495.1,425.9,498.2,422.1,498.2z"/>
<path class="st0" d="M422.1,397.6c-3.8,0-6.9-3.1-6.9-6.9v-20.3c0-3.8,3.1-6.9,6.9-6.9c3.8,0,6.9,3.1,6.9,6.9v20.3
	C429,394.5,425.9,397.6,422.1,397.6z"/>
<path class="st0" d="M352.9,83H166.1c-3.8,0-6.9-3.1-6.9-6.9V20.8c0-3.8,3.1-6.9,6.9-6.9h186.8c3.8,0,6.9,3.1,6.9,6.9v55.4
	C359.8,79.9,356.7,83,352.9,83z M173,69.2h173V27.7H173V69.2z"/>
<path class="st0" d="M256,124.5c-26.7,0-48.4-21.7-48.4-48.4c0-3.8,3.1-6.9,6.9-6.9s6.9,3.1,6.9,6.9c0,19.1,15.5,34.6,34.6,34.6
	s34.6-15.5,34.6-34.6c0-3.8,3.1-6.9,6.9-6.9s6.9,3.1,6.9,6.9C304.4,102.8,282.7,124.5,256,124.5z"/>
<path class="st0" d="M352.9,498.2H166.1c-3.8,0-6.9-3.1-6.9-6.9v-55.4c0-3.8,3.1-6.9,6.9-6.9h186.8c3.8,0,6.9,3.1,6.9,6.9v55.4
	C359.8,495.1,356.7,498.2,352.9,498.2z M173,484.3h173v-41.5H173V484.3z"/>
<path class="st0" d="M297.5,442.8c-3.8,0-6.9-3.1-6.9-6.9c0-19.1-15.5-34.6-34.6-34.6s-34.6,15.5-34.6,34.6c0,3.8-3.1,6.9-6.9,6.9
	s-6.9-3.1-6.9-6.9c0-26.7,21.7-48.4,48.4-48.4s48.4,21.7,48.4,48.4C304.4,439.7,301.3,442.8,297.5,442.8z"/>
<path class="st0" d="M422.1,262.9H89.9c-3.8,0-6.9-3.1-6.9-6.9c0-3.8,3.1-6.9,6.9-6.9h332.1c3.8,0,6.9,3.1,6.9,6.9
	C429,259.8,425.9,262.9,422.1,262.9z"/>
<path class="st0" d="M256,339c-45.9,0-83-37.2-83-83s37.2-83,83-83s83,37.2,83,83C339,301.8,301.8,339,256,339z M256,186.8
	c-38.2,0-69.2,31-69.2,69.2s31,69.2,69.2,69.2s69.2-31,69.2-69.2C325.1,217.8,294.2,186.9,256,186.8z"/>
</svg>
