<?xml version="1.0" encoding="utf-8"?>
<!-- Generator: Adobe Illustrator 23.0.0, SVG Export Plug-In . SVG Version: 6.00 Build 0)  -->
<svg version="1.1" id="Capa_1" xmlns="http://www.w3.org/2000/svg" xmlns:xlink="http://www.w3.org/1999/xlink" x="0px" y="0px"
	 viewBox="0 0 490.7 490.7" style="enable-background:new 0 0 490.7 490.7;" xml:space="preserve">
<style type="text/css">
	.st0{fill:#FFFFFF;}
</style>
<g>
	<g>
		<path class="st0" d="M245.3,0C110.1,0,0,110.1,0,245.3s110.1,245.3,245.3,245.3s245.3-110.1,245.3-245.3S380.6,0,245.3,0z
			 M245.3,469.3c-123.5,0-224-100.5-224-224s100.5-224,224-224s224,100.5,224,224S368.9,469.3,245.3,469.3z"/>
	</g>
</g>
<g>
	<g>
		<path class="st0" d="M245.3,234.7c-76.5,0-138.7,62.2-138.7,138.7c0,5.9,4.8,10.7,10.7,10.7s10.7-4.8,10.7-10.7
			c0-64.7,52.6-117.3,117.3-117.3s117.3,52.6,117.3,117.3c0,5.9,4.8,10.7,10.7,10.7s10.7-4.8,10.7-10.7
			C384,296.9,321.8,234.7,245.3,234.7z"/>
	</g>
</g>
<g>
	<g>
		<path class="st0" d="M245.3,64c-41.2,0-74.7,33.5-74.7,74.7s33.5,74.7,74.7,74.7s74.7-33.5,74.7-74.7S286.5,64,245.3,64z
			 M245.3,192c-29.4,0-53.3-23.9-53.3-53.3s23.9-53.3,53.3-53.3s53.3,23.9,53.3,53.3S274.7,192,245.3,192z"/>
	</g>
</g>
</svg>
