<?xml version="1.0" encoding="utf-8"?>
<!-- Generator: Adobe Illustrator 23.0.0, SVG Export Plug-In . SVG Version: 6.00 Build 0)  -->
<svg version="1.1" id="Capa_1" xmlns="http://www.w3.org/2000/svg" xmlns:xlink="http://www.w3.org/1999/xlink" x="0px" y="0px"
	 viewBox="0 0 512 512" style="enable-background:new 0 0 512 512;" xml:space="preserve">
<style type="text/css">
	.st0{fill:#FFFFFF;}
</style>
<g>
	<path class="st0" d="M504.5,401.2c4.1,0,7.5-3.4,7.5-7.5v-11.5c0-20.7-13.2-39-32.9-45.5l-46.9-15.4v-16.2
		c16.3-9.8,27.3-27.7,27.3-48v-32.3c0-30.9-25.1-56-56-56c-18.2,0-34.4,8.7-44.6,22.2c-5.7-10.6-15.3-18.9-27.3-22.9l-46.9-15.4
		v-16.2c16.3-9.8,27.3-27.7,27.3-48V56c0-30.9-25.1-56-56-56s-56,25.1-56,56v32.3c0,20.4,11,38.2,27.3,48v16.2L180.4,168
		c-12,4-21.6,12.2-27.3,22.9c-10.2-13.5-26.4-22.2-44.6-22.2c-30.9,0-56,25.1-56,56V257c0,20.4,11,38.2,27.3,48v16.2l-46.9,15.4
		C13.2,343.2,0,361.5,0,382.2v11.5c0,4.1,3.4,7.5,7.5,7.5s7.5-3.4,7.5-7.5v-11.5c0-14.2,9.1-26.8,22.6-31.3l43.9-14.4
		c4,11,14.6,18.9,27,18.9c12.4,0,23-7.9,27-18.9l43.9,14.4c9.6,3.2,17.1,10.5,20.5,19.7l-19.5,6.4c-19.7,6.5-32.9,24.8-32.9,45.5
		v8.7H57.4v-18.8c0-4.1-3.4-7.5-7.5-7.5s-7.5,3.4-7.5,7.5v18.8H15v-2.6c0-4.1-3.4-7.5-7.5-7.5S0,424.6,0,428.7v10.1
		c0,4.1,3.4,7.5,7.5,7.5h140v58.2c0,4.1,3.4,7.5,7.5,7.5h202c4.1,0,7.5-3.4,7.5-7.5v-10c0-4.1-3.4-7.5-7.5-7.5s-7.5,3.4-7.5,7.5v2.5
		h-27.4v-44c0-4.1-3.4-7.5-7.5-7.5s-7.5,3.4-7.5,7.5v44H204.9v-44c0-4.1-3.4-7.5-7.5-7.5s-7.5,3.4-7.5,7.5v44h-27.4v-74.4
		c0-14.2,9.1-26.8,22.6-31.3l43.9-14.5c4,11,14.6,18.9,27,18.9c12.4,0,23-7.9,27-18.9l43.9,14.5c13.5,4.5,22.6,17,22.6,31.3v36.8
		c0,4.1,3.4,7.5,7.5,7.5s7.5-3.4,7.5-7.5v-13.1h140c4.1,0,7.5-3.4,7.5-7.5v-10.1c0-4.1-3.4-7.5-7.5-7.5s-7.5,3.4-7.5,7.5v2.6h-27.4
		v-18.8c0-4.1-3.4-7.5-7.5-7.5s-7.5,3.4-7.5,7.5v18.8h-90.1v-8.7c0-20.7-13.2-39-32.9-45.5l-19.5-6.4c3.4-9.3,10.9-16.6,20.5-19.7
		l43.9-14.4c4,11,14.6,18.9,27,18.9c12.4,0,23-7.9,27-18.9l43.9,14.4c13.5,4.5,22.6,17,22.6,31.3v11.5
		C497,397.9,500.4,401.2,504.5,401.2L504.5,401.2z M403.5,183.7c22.6,0,41,18.4,41,41V257c0,22.6-18.4,41-41,41s-41-18.4-41-41
		v-32.3C362.5,202.1,380.9,183.7,403.5,183.7L403.5,183.7z M215,88.3V56c0-22.6,18.4-41,41-41s41,18.4,41,41v32.3
		c0,22.6-18.4,41-41,41S215,110.9,215,88.3L215,88.3z M256,144.3c4.7,0,9.3-0.6,13.7-1.7v15.2c0,0.1,0,0.1,0,0.2
		c0,7.6-6.2,13.7-13.7,13.7s-13.7-6.1-13.7-13.7c0-0.1,0-0.1,0-0.2v-15.2C246.7,143.7,251.3,144.3,256,144.3L256,144.3z
		 M185.1,182.3l43.9-14.5c4,11,14.6,18.9,27,18.9s23-7.9,27-18.9l43.9,14.5c12.5,4.1,21.2,15.1,22.4,28.1c-1.2,4.6-1.9,9.3-1.9,14.3
		V257c0,1.9,0.1,3.8,0.3,5.6h-35.9c-1.3-29.7-25.9-53.5-55.9-53.5s-54.6,23.8-55.9,53.5h-35.9c0.2-1.9,0.3-3.7,0.3-5.6v-32.3
		c0-4.9-0.6-9.7-1.9-14.3C163.9,197.4,172.6,186.4,185.1,182.3L185.1,182.3z M256,338.4c-22.6,0-41-18.4-41-41v-32.3
		c0-22.6,18.4-41,41-41s41,18.4,41,41v32.3C297,320,278.6,338.4,256,338.4z M67.5,257v-32.3c0-22.6,18.4-41,41-41s41,18.4,41,41V257
		c0,22.6-18.4,41-41,41S67.5,279.6,67.5,257L67.5,257z M122.2,326.7c0,7.6-6.2,13.7-13.7,13.7s-13.7-6.2-13.7-13.7v-15.4
		c4.4,1.1,9,1.7,13.7,1.7c4.7,0,9.3-0.6,13.7-1.7V326.7z M184.1,336.7l-46.9-15.4v-16.2c10.5-6.3,18.7-15.9,23.3-27.4H200v19.8
		c0,20.4,11,38.2,27.3,48v16.2l-13.1,4.3C209.3,352.3,198.3,341.4,184.1,336.7L184.1,336.7z M256,380.8c-7.6,0-13.7-6.2-13.7-13.7
		V367c0,0,0,0,0,0v-15.3c4.4,1.1,9,1.7,13.7,1.7c4.7,0,9.3-0.6,13.7-1.7V367v0v0.1C269.7,374.7,263.6,380.8,256,380.8L256,380.8z
		 M327.9,336.7c-14.2,4.7-25.2,15.6-30.1,29.3l-13.1-4.3v-16.2c16.3-9.8,27.3-27.7,27.3-48v-19.8h39.5c4.6,11.5,12.8,21.1,23.3,27.4
		v16.2L327.9,336.7z M403.5,340.4c-7.6,0-13.7-6.2-13.7-13.7v-15.4c4.4,1.1,9,1.7,13.7,1.7s9.3-0.6,13.7-1.7v15.4
		C417.2,334.3,411,340.4,403.5,340.4z"/>
</g>
</svg>
